<svg width="16" height="16" viewBox="0 0 16 16" fill="none" xmlns="http://www.w3.org/2000/svg">
<g clip-path="url(#clip0_35_866)">
<g clip-path="url(#clip1_35_866)">
<path d="M8 0C7.44688 0 7 0.446875 7 1V3C7 3.55312 7.44688 4 8 4C8.55313 4 9 3.55312 9 3V2.08437C11.8375 2.55937 14 5.02812 14 8C14 11.3125 11.3125 14 8 14C4.6875 14 2 11.3125 2 8C2 6.32188 2.6875 4.80312 3.8 3.71563C4.19375 3.32812 4.2 2.69687 3.81562 2.3C3.43125 1.90312 2.79688 1.9 2.4 2.28437C0.921875 3.7375 0 5.7625 0 8C0 12.4187 3.58125 16 8 16C12.4187 16 16 12.4187 16 8C16 3.58125 12.4187 0 8 0ZM6.03125 4.96875C5.7375 4.675 5.2625 4.675 4.97188 4.96875C4.68125 5.2625 4.67813 5.7375 4.97188 6.02812L7.47188 8.52812C7.76562 8.82187 8.24063 8.82187 8.53125 8.52812C8.82187 8.23438 8.825 7.75938 8.53125 7.46875L6.03125 4.96875Z" fill="#262641"/>
</g>
</g>
<defs>
<clipPath id="clip0_35_866">
<rect width="16" height="16" fill="white"/>
</clipPath>
<clipPath id="clip1_35_866">
<rect width="16" height="16" fill="white"/>
</clipPath>
</defs>
</svg>
